# xmcd CD database file
#
# Track frame offsets:
#	150
#	26515
#	57545
#	87090
#	116052
#	141595
#	165352
#	192832
#	219090
#	244302
#
# Disc length: 3629 seconds
#
# Revision: 3
# Processed by: cddbd v1.5.2PL0 Copyright (c) Steve Scherf et al.
# Submitted via: CDex 1.51
#
DISCID=890e2b0a
DTITLE=Mulgrew Miller - With Our Own Eyes
DYEAR=1994
DGENRE=Jazz
TTITLE0=Somewhere Else
TTITLE1=Carousel
TTITLE2=Small Portion
TTITLE3=Dreamin'
TTITLE4=Body And Soul
TTITLE5=New Wheels
TTITLE6=Words
TTITLE7=When I Get There
TTITLE8=Summer Me, Winter Me
TTITLE9=Another Type Thang
EXTD=YEAR: 1994
EXTT0=
EXTT1=
EXTT2=
EXTT3=
EXTT4=
EXTT5=
EXTT6=
EXTT7=
EXTT8=
EXTT9=
PLAYORDER=
